<svg viewBox="0 0 32 32" fill="white" xmlns="http://www.w3.org/2000/svg">
    <path fillRule="evenodd" clipRule="evenodd" d="M21.3333 4.66667C21.3333 4.29848 21.0349 4 20.6667 4C20.2985 4 20 4.29848 20 4.66667L20 27.3333C20 27.7015 20.2985 28 20.6667 28C21.0349 28 21.3333 27.7015 21.3333 27.3333L21.3333 4.66667ZM6.66667 7.33333C7.03486 7.33333 7.33333 7.63181 7.33333 8V23.3333C7.33333 23.7015 7.03486 24 6.66667 24C6.29848 24 6 23.7015 6 23.3333V8C6 7.63181 6.29848 7.33333 6.66667 7.33333ZM11.3333 11.3333C11.7015 11.3333 12 11.6318 12 12L12 20C12 20.3682 11.7015 20.6667 11.3333 20.6667C10.9651 20.6667 10.6667 20.3682 10.6667 20V12C10.6667 11.6318 10.9651 11.3333 11.3333 11.3333ZM26 10.6667C26 10.2985 25.7015 10 25.3333 10C24.9651 10 24.6667 10.2985 24.6667 10.6667V21.3333C24.6667 21.7015 24.9651 22 25.3333 22C25.7015 22 26 21.7015 26 21.3333L26 10.6667ZM16 8C16.3682 8 16.6667 8.29848 16.6667 8.66667V23.3333C16.6667 23.7015 16.3682 24 16 24C15.6318 24 15.3333 23.7015 15.3333 23.3333L15.3333 8.66667C15.3333 8.29848 15.6318 8 16 8Z" />
</svg>